# xmcd CD database file
#
# Track frame offsets:
#	150
#	20005
#	45591
#	62645
#	86545
#	106900
#	126885
#	147109
#	173075
#	200585
#
# Disc length: 2886 seconds
#
# Revision: 0
# Processed by: cddbd v1.5.1PL2 Copyright (c) Steve Scherf et al.
# Submitted via: CDex 1.51
#
DISCID=840b440a
DTITLE=Patti Moran McCoy - Jesus In Paris
DYEAR=2002
DGENRE=Jazz
TTITLE0=Such A Good Day
TTITLE1=Jesus In Paris
TTITLE2=America The Beautiful
TTITLE3=Pearl
TTITLE4=Aaronsong
TTITLE5=Jesus, You Are
TTITLE6=Song For Claire
TTITLE7=What A Friend We Have In Jesus
TTITLE8=67th Psalm
TTITLE9=Ave Maria
EXTD=YEAR: 2002
EXTT0=
EXTT1=
EXTT2=
EXTT3=
EXTT4=
EXTT5=
EXTT6=
EXTT7=
EXTT8=
EXTT9=
PLAYORDER=
